<?xml version="1.0" encoding="utf-8"?>
<!-- Generator: Adobe Illustrator 24.0.0, SVG Export Plug-In . SVG Version: 6.00 Build 0)  -->
<svg version="1.1" id="Layer_1" xmlns="http://www.w3.org/2000/svg" xmlns:xlink="http://www.w3.org/1999/xlink" x="0px" y="0px"
	 viewBox="0 0 4927 1341" style="enable-background:new 0 0 4927 1341;" xml:space="preserve">
<style type="text/css">
	.st0{clip-path:url(#SVGID_2_);}
	.st1{fill:#18052F;}
	.st2{fill:#FFFFFF;}
	.st3{fill:#FFFFFF;stroke:#000000;stroke-width:5;stroke-miterlimit:10;}
	.st4{font-family:'Arial-Black';}
	.st5{font-size:100px;}
</style>
<g>
	<defs>
		<rect id="SVGID_1_" width="4926.2" height="1340.1"/>
	</defs>
	<clipPath id="SVGID_2_">
		<use xlink:href="#SVGID_1_"  style="overflow:visible;"/>
	</clipPath>
	<g class="st0">
		<path class="st1" d="M2465.1,186.7c87.9,28.1,119.4,86.8,175.7,130.4c54.9,42.5,125.5,51.3,264.4,67
			c119.8,13.6,197.6,12.6,505.2,10.9c153.2-0.9,231.2-1,297,16.3c119.7,31.4,141.7,71.2,257.2,119.5c217.4,91,287.2,11.9,441.9,81.5
			c220.5,99.3,351.8,383.1,289.8,467.2c-33.4,45.3-124.5,35-306.1,14.5c-141.8-16-157.7-37.4-277.1-43.5
			c-117.9-6-122.1,13.9-266.2,12.7c-130.9-1.1-206.6-1.7-293.4-36.2c-142.1-56.5-137.4-133.6-237.2-153.9
			c-119.9-24.4-173.6,77.2-360.4,148.5c-69.9,26.7-330,125.9-498,14.5c-137.1-90.9-145.9-277.7-159.4-563.2
			c-11.7-248.9,47.4-285.1,65.2-293.4C2395.9,164.6,2433.3,176.6,2465.1,186.7L2465.1,186.7z"/>
		<path class="st1" d="M735,500.8c17.9-49.2,154.1-187.9,248-142.3c52.2,25.4,67.1,96,77.1,143.2c10.4,49.2,20.9,99.2-5.9,135.3
			c-45.5,61.2-161.1,32.1-256.9,7.9c-31.8-8-75.9-22.2-82-50.5c-1.6-7.3,0.6-17.7,4.9-38.4C726,528.5,733,506.3,735,500.8L735,500.8
			z"/>
		<path class="st2" d="M766.6,730.5c-1.6-2.3-3.2-4.7-4.8-6.9c-1-1.4-2.1-2.7-3.1-4.1c-0.7-0.9-1.4-1.8-2.1-2.6
			c-20.4-25.8-45.9-46.8-77.4-55.1c-0.8-0.2-1.6-0.5-2.4-0.7c-0.8-0.2-1.7-0.4-2.5-0.6c-0.4-0.1-0.8-0.1-1.2-0.2
			c-15.3-3.1-31.9-3.3-49.9,0.4l-0.2-0.8l-2.3-11.3l-1.6-7.9l-1.7-8.2c33.4-6.9,57.1-23,74-44.1c1.2-1.5,2.5-3.1,3.6-4.7
			c18.2-25,27.5-56.2,31.6-87.5c9.3-70.6-7.7-141.5-7.7-141.5s-11.3-69.9-54.7-134.3c-1.7-2.6-3.5-5.1-5.4-7.7
			c-31.5-43.7-78.5-83.3-147.8-94.8c-0.3-0.1-0.6-0.1-0.9-0.1c-30.8-5-65.8-4.5-105.9,3.8L36.7,197.1l1.2,5.9l0.6,2.7l1.8,8.6
			l222.8,1081.9l367.4-75.7c76.4-15.7,125.3-49.9,156.1-90.9c1.7-2.3,3.2-4.6,4.9-6.9c25.1-36.3,37-77.2,41.7-115.3
			c9-72.5-7.6-134.8-7.6-134.8C825.4,871.8,809,792.5,766.6,730.5L766.6,730.5z M548.4,1017.5c-1.2,1.5-2.6,3-4,4.4
			c-5.8,5.8-13.1,10.3-22,12.9c-0.7,0.2-1.4,0.5-2.1,0.7l-37.7,7.8l-47.3-229.6l-2.3-11.3l-1.8-8.9l-1.9-9.3
			c32.4-1.8,101.7-38.9,132.7,111.8C562,895.9,580.1,978.5,548.4,1017.5L548.4,1017.5z M451.8,559.5c-1.2,1.6-2.5,3.2-3.9,4.8
			c-8.5,9.7-19.7,18.2-34.4,24.3c-6.9,2.9-14.5,5.3-23.1,7.1L343,365.2l-2.3-11.3l-1.9-9.1l-1.7-8.2c0,0,2.8-1,7.6-2
			c24.2-5,99.6-10.2,124.1,109C468.8,443.7,486.7,513.4,451.8,559.5z"/>
		<path class="st1" d="M682.1,638.3c8.8-8.3,16.6-17.7,23.5-28.5c1-1.6,2-3.3,2.9-4.9c1.3-1.9,2.7-3.5,3.9-5.5c1-1.6,2-3.3,2.9-4.9
			c1.3-1.8,2.7-3.5,3.9-5.5c55.5-87.3,25.3-225.8,22.3-239.1c-2.3-13.2-27.2-145.4-129.3-215.9c-58.5-40.4-130.1-52.2-212.7-35.2
			L32,174.6c-8.4,1.7-14.7,7.9-17.2,15.6c-3.2,2.8-5.5,6.4-6.8,10.4c-6.1,5.3-9.3,13.5-7.5,22l226.4,1099.1
			c2.6,12.5,14.7,20.5,27.2,17.9l367.4-75.7c83.3-17.2,144.7-56.8,182.3-117.7c0.7-1.2,1.4-2.3,2.1-3.5c1.5-2.3,3.3-4.5,4.8-6.9
			c0.7-1.2,1.4-2.3,2-3.5c1.5-2.3,3.3-4.5,4.8-6.9c67.1-108.7,33.8-245.9,30.6-258.1C844.8,852.2,803,666.2,682.1,638.3L682.1,638.3
			z M658.8,212.6c1.8,2.5,3.6,5.1,5.4,7.6c43.4,64.4,54.7,134.3,54.7,134.3s16.9,70.9,7.7,141.5c-4.1,31.3-13.4,62.5-31.6,87.5
			c-1.2,1.6-2.4,3.1-3.6,4.7c-16.9,21.1-40.7,37.3-74,44.1l1.7,8.2l1.6,7.9l2.3,11.3l0.2,0.8c18.1-3.7,34.7-3.5,49.9-0.4
			c0.4,0.1,0.8,0.1,1.2,0.2c0.8,0.2,1.7,0.4,2.5,0.6c0.8,0.2,1.6,0.4,2.4,0.7c31.5,8.2,57,29.3,77.4,55.1c0.7,0.9,1.4,1.8,2.1,2.6
			c1,1.4,2.1,2.7,3.1,4c1.7,2.2,3.2,4.6,4.8,6.9c42.4,62,58.8,141.3,59,142.2c0,0,16.6,62.3,7.6,134.8c-4.7,38.1-16.7,79-41.7,115.3
			c-1.6,2.3-3.1,4.7-4.8,6.9c-30.9,41-79.8,75.2-156.2,90.9l-367.4,75.7L40.2,214.4l-1.8-8.6l-0.5-2.7l-1.2-5.9l367.4-75.7
			c40.1-8.3,75.2-8.7,105.9-3.8c0.3,0.1,0.6,0.1,0.9,0.1C580.3,129.3,627.3,168.9,658.8,212.6L658.8,212.6z"/>
		<path class="st1" d="M344.7,334.6c-4.8,1-7.6,2-7.6,2l1.7,8.2l1.9,9.1l2.3,11.3l47.5,230.4c8.5-1.8,16.1-4.2,23.1-7.1
			c14.6-6.1,25.9-14.5,34.4-24.3c1.4-1.6,2.7-3.2,3.9-4.8c34.9-46.1,17-115.8,17-115.8C444.3,324.4,368.9,329.6,344.7,334.6z"/>
		<path class="st1" d="M429.3,784.1l1.9,9.3l1.8,8.9l2.3,11.3l47.3,229.6l37.7-7.8c0.7-0.2,1.4-0.5,2.1-0.7c9-2.6,16.2-7.1,22-12.9
			c1.4-1.4,2.7-2.8,4-4.4c31.6-39,13.6-121.6,13.6-121.6C530.9,745.2,461.7,782.3,429.3,784.1L429.3,784.1z"/>
		<path class="st2" d="M1268,315.3c-22.3-50.4-61.8-101.1-131.1-131c-0.8-0.4-1.7-0.7-2.6-1c-38.5-16.2-85.9-26.2-144.7-26.2
			c-42.4,0-78.4,6.6-109.2,17.7c-38.2,13.8-68.2,34.5-91.6,58.6c-2,2.1-4,4.2-5.9,6.3c-78.2,86.6-78.3,210.2-78.3,210.2h244.5
			c0-2.1,0.2-10.6,2.1-20.6c1.5-7.9,4-16.7,8.2-24.5c1.1-2,2.3-3.9,3.6-5.7c6.2-8.5,15.2-14.6,28.2-14.6c0,0,0.4,0,1.1,0
			c6.8,0,42.5,2.6,42.5,56.1v185.3c-2.7-6.5-5.6-12.5-8.5-18.2c-2.7-5.3-5.6-10.3-8.5-15.1c-0.9-1.4-1.7-2.9-2.6-4.2
			c-2.7-4.1-5.6-7.9-8.5-11.5c-3.5-4.4-7.3-8.4-11.2-12.2c-12.2-11.9-26.1-20.9-42.4-27.5c-1.6-0.6-3.3-1.3-4.9-1.9
			c-22.9-8.3-50.2-12.1-83-12.1c-23.6,0-44,4.1-61.8,11.3c-18.5,7.5-33.9,18.6-46.7,32.4c-1.9,2-3.9,4-5.7,6.2
			c-32.9,40-46.3,100-46.3,165c0,129.3,26.5,330.2,160.4,330.2c41.5,0,73.1-13.7,98.2-35.4c1.8-1.6,3.6-3.2,5.3-4.8
			c21.2-20,37.4-45.8,50.7-73.7c3-6.3,5.8-12.7,8.5-19.1c3-7,5.8-14.1,8.5-21.2v148h260.1V468.5c0,0,5.4-73.1-26.5-148.5
			C1269.3,318.4,1268.7,316.9,1268,315.3L1268,315.3z M1036.4,805v4.7c-1.3,29.2-7.2,63.9-23.4,73.6c-1.6,1-3.2,1.8-5,2.2
			c-1.4,0.3-2.8,0.5-4.3,0.5c-2.9,0-5.5-0.5-8-1.4c-1.3-0.4-2.5-1.1-3.8-1.7c-2-1.1-3.9-2.4-5.6-4c-3.9-3.6-7.2-8.2-9.9-13.7
			c-0.6-1.2-1.1-2.6-1.7-3.9c-11.4-26.8-11.5-65.6-11.5-65.6v-45.2c0,0,0-22.7,5.1-45.3c2.1-9.2,5.1-18.4,9.2-26
			c1.2-2.2,2.5-4.3,3.9-6.2c5.6-7.7,12.8-12.8,22.3-12.8c23.4,0,31.2,42,32.7,76.3C1038,759.8,1036.4,805,1036.4,805L1036.4,805z"/>
		<path class="st1" d="M989.7,134.7c-104.8,0-173.8,37.1-219.3,85.8c-2.9,2.8-5.8,5.6-8.5,8.5c-94.9,92.6-96.6,235.8-96.6,237.9
			c0,12.4,10,22.4,22.4,22.4h244.5c8.4,0,15.6-4.7,19.4-11.5c3.6-2,6.5-5,8.5-8.5c6.8-3.8,11.5-11,11.5-19.4c0-0.2,0.4-14.1,4.1-26
			c0,0,0,0,0.1,0c7,0,19.6,4.4,19.6,33.8v77.5c-32.2-23.7-74.1-34.4-130.3-34.4c-52.6,0-95,17.9-125.7,51.4
			c-2.9,2.7-5.8,5.6-8.5,8.5c-42.5,39.7-65.6,105.9-65.6,194.4c0,106,17.8,352.5,182.8,352.5c56.4,0,96.8-22.3,126.9-54.3
			c2.9-2.8,5.8-5.6,8.5-8.5c4.7-4.5,9.2-9.1,13.5-14v48.3c0,12.3,10,22.4,22.4,22.4h260.1c8.4,0,15.6-4.7,19.4-11.5
			c3.6-2,6.5-5,8.5-8.5c6.8-3.8,11.5-11,11.5-19.4V469.3c0.8-13.4,6.8-146.3-81.5-241.5C1180.1,166,1096.7,134.7,989.7,134.7
			L989.7,134.7z M1006.6,576.7c3,3.7,5.8,7.5,8.5,11.5c0.9,1.4,1.8,2.9,2.6,4.2c3,4.7,5.8,9.8,8.5,15.1c3,5.8,5.8,11.8,8.5,18.2
			V440.5c0-53.5-35.7-56.1-42.5-56.1c-0.7,0-1.1,0-1.1,0c-13,0-22,6.1-28.2,14.6c-1.3,1.8-2.5,3.7-3.6,5.7
			c-4.2,7.8-6.8,16.6-8.2,24.5c-1.9,10.1-2.1,18.5-2.1,20.6H704.7c0,0,0.1-123.6,78.3-210.2c1.9-2.1,3.9-4.2,5.9-6.3
			c23.4-24.1,53.3-44.9,91.6-58.6c30.7-11.1,66.7-17.7,109.2-17.7c58.8,0,106.2,10,144.7,26.2c0.8,0.4,1.7,0.7,2.6,1
			c69.3,30,108.8,80.6,131.1,131c0.7,1.5,1.3,3.1,2,4.7c31.9,75.4,26.5,148.5,26.5,148.5v593.4h-260.1V914
			c-2.7,7.1-5.6,14.2-8.5,21.2c-2.7,6.4-5.5,12.8-8.5,19.1c-13.3,27.9-29.5,53.7-50.7,73.7c-1.7,1.6-3.5,3.2-5.3,4.8
			c-25.1,21.6-56.7,35.4-98.2,35.4c-133.9,0-160.4-200.9-160.4-330.2c0-65,13.4-125,46.3-165c1.8-2.2,3.8-4.1,5.7-6.2
			c12.8-13.8,28.2-24.9,46.7-32.4c17.8-7.2,38.2-11.3,61.8-11.3c32.9,0,60.1,3.8,83,12.1c1.7,0.6,3.3,1.2,4.9,1.9
			c16.2,6.6,30.2,15.6,42.4,27.5C999.3,568.3,1003.1,572.3,1006.6,576.7L1006.6,576.7z"/>
		<path class="st1" d="M976.5,865.1c2.7,5.5,6,10.1,9.9,13.7c1.7,1.6,3.6,3,5.7,4c1.2,0.7,2.4,1.3,3.8,1.7c2.5,0.8,5.1,1.4,8,1.4
			c1.5,0,2.9-0.2,4.3-0.5c1.8-0.4,3.5-1.2,5.1-2.2c16.1-9.7,22-44.4,23.4-73.6v-4.7c0,0,1.6-45.2,0-68.5
			c-1.6-34.3-9.3-76.3-32.7-76.3c-9.5,0-16.8,5.1-22.3,12.8c-1.4,1.9-2.7,4-3.9,6.2c-4.1,7.7-7.1,16.8-9.2,26
			c-5.1,22.6-5.1,45.3-5.1,45.3v45.2c0,0,0.1,38.8,11.5,65.6C975.3,862.5,975.8,863.8,976.5,865.1L976.5,865.1z"/>
		<path class="st2" d="M1926.5,199.9l-254.9-20.5l-0.5,5.9l-0.2,2.6l-0.7,8.5l-25.6,318.3c-2.2-6.8-4.5-13.5-6.9-20.2
			c-2.2-6.1-4.6-12.2-7.1-18.1c-0.7-1.8-1.5-3.6-2.2-5.3c-2.3-5.2-4.8-10.4-7.3-15.5c-3.1-6.1-6.3-11.9-9.8-17.7
			c-16.7-27.7-38.2-51.2-66.8-66.1c-1.7-0.9-3.5-1.6-5.3-2.4c-16.1-7.6-34.3-12.8-55.1-14.4c-17.9-1.4-34.1,0.6-48.8,5.5
			c-16.8,5.6-31.6,15-44.6,27c-1.9,1.7-3.8,3.4-5.6,5.2c-89.4,91.2-90.2,314.3-90.2,314.3l-13.6,169.2c0,0-43.2,362.2,130.7,376.1
			c43.9,3.5,77.9-8,105.6-28.3c1.6-1.2,3.1-2.4,4.6-3.6c21.4-16.9,38.8-39.2,53.8-63.9c3.4-5.6,6.7-11.4,9.9-17.2
			c3.5-6.3,6.9-12.6,10.1-19.1l-11.7,145.9l240.7,19.3l8.5,0.7l2.6,0.2l5.9,0.5L1929,202.9l0.1-1.2l0.1-1.6l-1.6-0.1L1926.5,199.9
			L1926.5,199.9z M1632.9,660.7l-28.7,357.1c-4.8,27.3-12.5,61-29.7,69.7c-1.7,0.8-3.4,1.5-5.2,1.8c-1.7,0.3-3.4,0.5-5.3,0.3
			c-2.6-0.2-5-0.8-7.2-1.7c-1.6-0.6-3-1.5-4.4-2.4c-1.7-1.1-3.2-2.4-4.7-3.8c-3.9-4-7.1-9.1-9.5-15c-0.5-1.2-0.9-2.5-1.3-3.8
			c-9.2-27.1-6.3-65-6.3-65l11.6-144.4l6.6-82.3l11.7-145.9c0,0,1.8-21.6,8.4-43.1c2.8-9,6.5-17.9,11.2-25.3c1.3-2.1,2.7-4,4.2-5.8
			c6.2-7.3,14-11.9,23.7-11.1c24.8,2,27.7,44.4,28,78.8C1634.5,640.5,1632.8,660.7,1632.9,660.7L1632.9,660.7z"/>
		<path class="st1" d="M1931.1,177.8l-257.7-20.7c-8.3-0.7-15.9,3.4-20.3,9.9c-3.7,1.7-6.9,4.4-9.2,7.8c-7.1,3.3-12.3,10.1-13,18.4
			L1614,402.6c-27.4-34.8-68-65-128.2-69.9c-42.1-3.4-79.2,9.4-110.3,38c-0.3,0.3-0.6,0.6-0.9,0.9c-2.8,2.2-5.6,4.4-8.3,6.9
			c-0.3,0.3-0.6,0.6-0.9,0.9c-2.8,2.2-5.6,4.5-8.3,6.9c-99,91-102.9,316.8-103.1,335.3l-13.5,168c-1.8,15.1-27.2,247.3,57.4,350.6
			c24.7,30.2,56.3,47,93.8,50c59.1,4.8,102.2-14.2,135.4-44.3c3.2-2.5,6.2-5.1,9.2-7.8c3.9-3.1,7.7-6.4,11.4-9.9l-4.2,51.8
			c-1,12.3,8.2,23.1,20.5,24.1l257.7,20.7c8.3,0.7,15.9-3.4,20.3-9.9c3.7-1.7,6.9-4.4,9.2-7.8c7.1-3.3,12.3-10.1,13-18.4
			l87.3-1086.7C1952.6,189.6,1943.4,178.8,1931.1,177.8L1931.1,177.8z M1611.2,438c3.5,5.7,6.7,11.6,9.8,17.7
			c2.6,5.1,5,10.2,7.3,15.5c0.8,1.8,1.5,3.6,2.2,5.3c2.5,6,4.9,12,7.1,18.1c2.4,6.7,4.8,13.4,6.9,20.2l25.6-318.3l0.7-8.5l0.2-2.6
			l0.5-5.9l254.9,20.5l1.2,0.1l1.6,0.1l-0.1,1.6l-0.1,1.2l-87.1,1083.9l-5.9-0.5l-2.6-0.2l-8.5-0.7l-240.7-19.3l11.7-145.9
			c-3.2,6.4-6.6,12.8-10.1,19.1c-3.2,5.8-6.5,11.6-9.9,17.2c-15.1,24.7-32.5,47-53.8,63.9c-1.5,1.2-3,2.4-4.6,3.6
			c-27.6,20.3-61.6,31.8-105.5,28.3c-173.9-14-130.7-376.1-130.7-376.1l13.6-169.2c0,0,0.9-223.1,90.2-314.3
			c1.8-1.8,3.7-3.5,5.6-5.2c13-12,27.8-21.4,44.6-27c14.7-4.9,30.9-6.9,48.8-5.5c20.8,1.7,39,6.8,55.1,14.4c1.8,0.8,3.6,1.6,5.3,2.5
			C1573.1,386.8,1594.5,410.2,1611.2,438L1611.2,438z"/>
		<path class="st1" d="M1538.3,1066.6c2.4,5.9,5.5,11,9.5,15c1.4,1.5,3,2.8,4.7,3.9c1.4,0.9,2.8,1.8,4.4,2.4
			c2.2,0.9,4.6,1.5,7.2,1.7c1.8,0.2,3.6,0,5.3-0.3c1.8-0.3,3.6-1,5.2-1.8c17.2-8.6,24.8-42.3,29.7-69.7l28.7-357.1
			c0,0,1.6-20.2,3.4-41.9c-0.4-34.4-3.2-76.8-28-78.8c-9.7-0.8-17.4,3.8-23.7,11.1c-1.5,1.8-2.9,3.7-4.2,5.8
			c-4.7,7.4-8.4,16.3-11.2,25.3c-6.6,21.5-8.4,43.1-8.4,43.1L1549,771.1l-6.6,82.3l-11.6,144.4c0,0-3,37.9,6.3,65
			C1537.5,1064,1537.9,1065.3,1538.3,1066.6L1538.3,1066.6z"/>
		<path class="st2" d="M2799,188.2c-0.1-0.3-0.3-0.6-0.4-0.8c-0.3-0.6-0.7-1.2-1-1.8c-32.7-62.3-86-120.9-169.8-147.2
			c-1.2-0.4-2.3-0.8-3.6-1.2c-0.7-0.2-1.4-0.4-2.1-0.7c-1.6-0.5-3.2-0.8-4.8-1.2c-36.4-10-78.3-14-126.5-9.8
			c-46.9,4.1-86.5,14.7-120.1,29.9c-42.8,19.4-75.5,46.3-100.7,77.4c-1.8,2.3-3.7,4.5-5.4,6.8c-101.5,133.6-68,335.1-68,335.1
			s0.6,26.6,6.1,69.5l17.6,201.8c2.1,43.2,6.1,69.5,6.1,69.5s23.4,421.4,367.6,391.4c96.7-8.4,163-45.5,207.7-94.4
			c1-1.1,2-2.1,3-3.2c39.4-44.4,61.6-98.1,73-148.9c10.5-47,11.9-91.6,9-124.1l-7.5-86.4l-0.1-1.3l-0.1-1.7l-1.7,0.1l-1.3,0.1
			l-256.9,20.8l0.5,6.4l0.2,2.8l0.7,9.1l7.8,106c0,0,9,47.9-17.4,72.3c-1.6,1.5-3.3,2.9-5.1,4.2c-5.6,3.9-12.7,6.7-21.1,8.3
			c-2.4,0.5-4.6,1-7.2,1.2c-0.7,0.1-9.7,0.8-20.6-3c-1.1-0.4-2.2-0.8-3.4-1.2c-8.3-3.5-17.2-9.7-24.3-20.8c-0.2-0.3-0.5-0.6-0.7-1
			c-5.9-9.6-10.3-22.6-11.9-40.4l-50.8-582.4c-0.6-6.8-0.5-12.9-0.1-18.5c0.8-10.9,3.3-19.8,6.8-27c1-2,2-3.8,3.1-5.6
			c3.4-5.2,7.2-9.4,11.3-12.4c12.4-11.1,27.2-12.4,27.2-12.4c66.2-5.8,65,76,65,76l11.1,127.4l243.1-22.8l9.1-0.9l2.8-0.3l6.3-0.6
			l-7.9-91c-3.5-39.7-15.7-96.3-43.3-150.8C2799.8,189.9,2799.4,189.1,2799,188.2L2799,188.2z"/>
		<path class="st1" d="M2488.8,1.8c-102.6,9-182.3,48-237.3,115.9c-2.8,3.2-5.6,6.5-8.3,9.9c-4.3,4.9-8.5,9.8-12.5,15
			c-104.8,135.3-77.8,332.5-74.4,354.1c0.2,6.6,1.4,32,6.1,69.7l17.5,201c1.9,39.2,5.3,64.7,6.1,70.3c1.2,19,17.4,225.6,149.8,340.3
			c65.2,56.5,147.1,80.8,243.6,72.4c101.5-8.9,182.4-49.5,237.2-118.4c2.8-3.2,5.6-6.5,8.3-9.9c15-17.3,28.4-36.5,39.8-57.6
			c52.6-97.7,48.3-201,45.7-230.3l-7.8-89.3c-1.1-13.1-12.6-22.8-25.7-21.7l-259.9,21h-0.2c-8.9,0.8-16.1,6.4-19.6,14
			c-3.6,2.5-6.5,5.9-8.3,9.9c-6.8,4.6-11.1,12.6-10.4,21.4l9.2,124.2c0.1,0.9,0.2,1.8,0.4,2.7c1.1,6,2.4,22.2-1.6,35.7
			c-3,1.2-6.7,2-11.3,2.5c-7.2,0.5-31.2-1.2-35-44.7l-50.8-582.4c-0.9-10.8-0.1-20.2,2.3-27.7c4.4-2.2,8.2-2.7,8.3-2.7
			c13.3-1.2,19.7,3.2,23.3,6.5c12.7,11.7,15.4,37.5,15.3,45.6c0,0.7,0,1.6,0.1,2.3l11.1,127.4c0.5,6.3,3.6,12.2,8.5,16.2
			c4.8,4,11.1,6,17.3,5.4h0.2l261.3-24.5c8.8-0.8,16-6.4,19.4-14c3.6-2.5,6.5-5.9,8.3-9.9c6.9-4.7,11.2-12.8,10.4-21.7l-7.9-91
			C2855.3,202.8,2762.2-22.1,2488.8,1.8L2488.8,1.8z M2800.2,190.7c27.6,54.5,39.8,111.1,43.3,150.8l7.9,91l-6.3,0.6l-2.8,0.3
			l-9.1,0.9L2590.2,457L2579,329.6c0,0,1.2-81.8-65-76c0,0-14.9,1.3-27.2,12.4c-4,3-7.9,7.2-11.3,12.5c-1.1,1.7-2.1,3.6-3.1,5.6
			c-3.5,7.1-6,16-6.8,27c-0.4,5.7-0.5,11.7,0.1,18.5l50.8,582.4c1.6,17.8,6,30.9,11.9,40.4c0.2,0.3,0.5,0.6,0.7,1
			c7.1,11.1,16,17.3,24.3,20.8c1.2,0.5,2.3,0.9,3.4,1.2c10.9,3.7,19.9,3,20.6,3c2.6-0.2,4.9-0.8,7.2-1.2c8.4-1.6,15.5-4.4,21.1-8.3
			c1.9-1.3,3.5-2.8,5.1-4.2c26.4-24.5,17.4-72.3,17.4-72.3l-7.8-106l-0.7-9.1l-0.2-2.8l-0.5-6.4l256.9-20.8l1.3-0.1l1.7-0.1l0.1,1.7
			l0.1,1.3l7.5,86.4c2.8,32.5,1.5,77.1-9,124.1c-11.4,50.8-33.5,104.5-73,148.9c-1,1.1-2,2.1-3,3.2c-44.8,48.9-111,86-207.7,94.4
			c-344.1,30-367.6-391.4-367.6-391.4s-4-26.3-6.1-69.5l-17.6-201.9c-5.4-42.9-6.1-69.5-6.1-69.5s-33.5-201.4,68-335
			c1.8-2.3,3.6-4.6,5.4-6.8c25.1-31,57.9-58,100.7-77.4c33.6-15.2,73.2-25.8,120.1-29.9c48.2-4.2,90.1-0.1,126.5,9.8
			c1.6,0.4,3.2,0.8,4.8,1.2c0.7,0.2,1.4,0.4,2.1,0.7c1.2,0.4,2.4,0.8,3.6,1.2c83.7,26.3,137,84.9,169.8,147.2c0.3,0.6,0.7,1.2,1,1.8
			c0.1,0.3,0.3,0.5,0.4,0.8C2799.4,189.1,2799.8,189.9,2800.2,190.7L2800.2,190.7z"/>
		<path class="st2" d="M3376,403.6c-17.7-55.3-53.3-112.8-122.4-152c-0.8-0.5-1.7-0.9-2.6-1.4c-38.5-21.4-87-37.2-148.6-43.9
			c-44.5-4.8-82.9-2-116.4,6.1c-41.6,10.1-75.3,28.4-102.6,51c-2.3,1.9-4.7,3.9-6.9,5.9c-91.8,81.8-105.9,211.3-105.9,211.3
			l239.8,26l7.9,0.9l4,0.4l4.5,0.5c0.2-2.2,1.4-11,4.6-21.4c2.4-8.1,6-17,11.4-24.7c1.4-2,2.8-3.8,4.4-5.5
			c7.5-8.2,17.5-13.6,31.2-12.1c0,0,0.4,0,1.2,0.1c7.1,0.8,44.2,7.5,38.2,63.6l-21,194.1c-2.1-7.1-4.4-13.7-6.9-20.1
			c-2.2-5.9-4.7-11.4-7.2-16.8c-0.8-1.6-1.5-3.2-2.3-4.8c-2.4-4.6-5-8.9-7.6-13.1c-3.2-5-6.7-9.6-10.3-14.1
			c-11.4-13.8-25-24.9-41.3-33.6c-1.6-0.9-3.3-1.7-4.9-2.6c-23.1-11.3-51.2-18.3-85.6-22.1c-24.7-2.7-46.5-0.7-66,4.9
			c-20.2,5.8-37.6,15.6-52.6,28.7c-2.2,1.9-4.6,3.7-6.7,5.8c-39,38.2-59.8,99.5-67.2,167.6c-14.7,135.4-9.7,348.9,130.6,364
			c43.5,4.7,78.2-6.1,106.9-25.9c2.1-1.4,4.1-2.9,6.1-4.4c24.5-18.6,44.4-43.7,61.5-71.4c3.9-6.2,7.5-12.6,11.1-19
			c3.9-7,7.7-14.1,11.4-21.3l-16.8,155l254.6,27.6l8.9,1l2.8,0.3l6.2,0.7l67.3-621.6c0,0,13.9-76-10.9-158.6
			C3377,407.1,3376.5,405.4,3376,403.6L3376,403.6z M3077.9,890.4l-0.5,4.9c-4.7,30.4-14.8,66.2-32.8,74.5c-1.8,0.8-3.6,1.5-5.5,1.7
			c-1.5,0.2-3,0.2-4.6,0c-3-0.3-5.7-1.2-8.2-2.4c-1.3-0.6-2.6-1.4-3.8-2.2c-2-1.4-3.8-3-5.5-4.9c-3.7-4.2-6.6-9.5-8.8-15.5
			c-0.5-1.4-0.9-3-1.4-4.4c-8.9-29.3-4.6-69.8-4.6-69.8l5.1-47.3c0,0,2.6-23.6,10.4-46.7c3.2-9.5,7.4-18.8,12.6-26.4
			c1.5-2.2,3.1-4.2,4.8-6.1c6.7-7.4,14.9-11.9,24.9-10.8c24.5,2.6,27.9,47.6,25.6,83.6C3084.6,843.2,3077.9,890.4,3077.9,890.4
			L3077.9,890.4z"/>
		<path class="st1" d="M3105,183c-109.7-11.9-186.2,19.1-239.5,65c-3.4,2.6-6.7,5.2-9.9,8c-109.9,86.2-127.9,236-128.2,238.2
			c-1.4,12.9,7.9,24.6,20.9,26l256.1,27.7c8.8,1,16.9-3.1,21.7-9.8c4-1.7,7.4-4.5,9.9-8c7.6-3.2,13.3-10.3,14.2-19
			c0-0.3,2-14.7,7.2-26.8c0.1,0,0.1,0,0.1,0c7.4,0.8,20.1,6.9,16.8,37.6l-8.8,81.2c-31-28.5-73.7-44.4-132.6-50.8
			c-55.1-6-101.5,8-137.5,39.6c-3.4,2.5-6.7,5.2-9.9,8c-49,36.8-80.8,103.5-90.8,196.2c-12,111-21.3,371.3,151.5,390
			c59.1,6.4,104-12.4,139.1-42.5c3.4-2.6,6.7-5.2,9.9-8c5.5-4.1,10.7-8.5,15.7-13.1l-5.5,50.6c-1.4,12.9,7.9,24.6,20.9,26
			l272.5,29.5c8.8,0.9,16.9-3.1,21.6-9.8c4-1.7,7.4-4.4,9.9-8c7.6-3.2,13.3-10.3,14.2-19l67.2-620.8c2.4-14,23.7-152.5-58-262.2
			C3300.8,237.4,3217.1,195.1,3105,183L3105,183z M3072.6,647.9c2.7,4.2,5.2,8.5,7.6,13.1c0.8,1.5,1.5,3.2,2.3,4.8
			c2.6,5.3,5,10.9,7.2,16.8c2.4,6.4,4.8,13,6.9,20.1l21-194.1c6.1-56.1-31-62.8-38.2-63.6c-0.8-0.1-1.2-0.1-1.2-0.1
			c-13.6-1.5-23.7,3.9-31.2,12.1c-1.6,1.7-3,3.6-4.4,5.5c-5.3,7.7-8.9,16.6-11.4,24.7c-3.1,10.4-4.3,19.2-4.6,21.4l-4.5-0.5l-4-0.4
			l-7.9-0.9l-239.8-26c0,0,14.1-129.5,105.9-211.3c2.2-2,4.6-4,6.9-5.9c27.3-22.6,61-41,102.6-51c33.5-8.1,71.9-10.9,116.4-6.1
			c61.6,6.7,110.1,22.5,148.6,43.9c0.8,0.5,1.7,0.9,2.6,1.4c69.1,39.2,104.7,96.7,122.4,152c0.6,1.8,1.1,3.5,1.6,5.2
			c24.9,82.6,10.9,158.6,10.9,158.6l-67.3,621.6l-6.2-0.7l-2.8-0.3l-8.9-1l-254.6-27.6l16.8-155c-3.6,7.1-7.4,14.2-11.4,21.3
			c-3.6,6.4-7.3,12.8-11.1,19c-17.1,27.7-37,52.9-61.5,71.4c-2,1.5-4,3-6.1,4.4c-28.7,19.8-63.4,30.6-106.9,25.9
			c-140.3-15.2-145.2-228.6-130.6-364c7.4-68.1,28.2-129.4,67.2-167.6c2.1-2.1,4.4-3.9,6.7-5.8c15-13,32.4-22.9,52.6-28.7
			c19.4-5.6,41.3-7.5,66-4.9c34.4,3.7,62.5,10.8,85.6,22.1c1.7,0.8,3.3,1.7,4.9,2.6c16.3,8.7,29.9,19.8,41.3,33.6
			C3065.9,638.3,3069.4,642.9,3072.6,647.9L3072.6,647.9z"/>
		<path class="st1" d="M3008.2,946.5c2.2,6,5.2,11.2,8.8,15.5c1.6,1.9,3.5,3.5,5.5,4.9c1.2,0.8,2.4,1.6,3.8,2.2
			c2.5,1.2,5.2,2,8.2,2.4c1.6,0.2,3.1,0.1,4.6-0.1c1.9-0.2,3.8-0.9,5.5-1.7c18-8.3,28.1-44,32.8-74.5l0.5-4.9c0,0,6.8-47.1,7.8-71.8
			c2.3-36.1-1.1-81-25.6-83.7c-10-1.1-18.1,3.5-24.9,10.9c-1.7,1.9-3.3,3.9-4.8,6.1c-5.2,7.6-9.4,16.9-12.6,26.4
			c-7.9,23.1-10.4,46.7-10.4,46.7l-5.1,47.3c0,0-4.3,40.5,4.6,69.8C3007.3,943.5,3007.7,945.1,3008.2,946.5L3008.2,946.5z"/>
		<path class="st2" d="M3850.7,192.3c-20.8-30.3-47.5-51.5-81.2-59.5c-0.9-0.2-1.8-0.4-2.7-0.6c-2.5-0.6-5.1-1.1-7.6-1.6
			c-0.2,0-0.5,0-0.7-0.1c-17.1-2.5-35.9-1.9-56.6,2.5c-18.3,3.9-34.7,11.3-49.4,21.1c-22.1,14.7-40.2,35-54.8,58.7
			c-1.4,2.3-2.9,4.6-4.2,6.9c-18.8,32.9-31,71.2-37.4,108.6l-2.4-11.2l-1.8-8.6l-5-23.3l-23.3-109.5l-0.3-1.3l-0.3-1.6l-1.6,0.3
			l-1.3,0.3l-266.9,56.9l1.3,6l0.6,2.7l1.9,8.7l191.1,896.6l252.4-53.8l8.7-1.8l2.7-0.6l6-1.3l-128.8-604.6c0,0-13.4-48-13.5-85.9
			c0-8.1,0.6-15.7,2.1-22.4c0.6-2.6,1.3-5.1,2.2-7.4c3.1-7.9,8-13.4,15.5-15c0.2,0,0.5-0.1,0.8-0.1c36.8-6.2,72.6,208.5,72.6,208.5
			l252.3-53.8l8.7-1.9l2.7-0.6l6-1.3l-38.9-182.5c-9.7-48.5-24.8-91.5-46.6-124.5C3852.1,194.3,3851.4,193.3,3850.7,192.3z"/>
		<path class="st1" d="M3697,110.2c-48.7,10.4-90,42.5-119.8,91.1c-2.3,3.4-4.6,6.9-6.9,10.6c-4,5.8-7.8,11.9-11.4,18.3l-13.2-62.2
			c-2.7-12.6-15.1-20.6-27.6-17.9l-269.8,57.5c-8.5,1.8-14.9,8.1-17.3,15.9c-3.2,2.8-5.6,6.5-6.9,10.6c-6.1,5.4-9.3,13.8-7.5,22.3
			l194.8,914c2.7,12.6,15.1,20.6,27.6,17.9l269.8-57.5c8.5-1.8,14.9-8.1,17.3-15.9c3.2-2.8,5.6-6.5,6.9-10.6
			c6.1-5.4,9.3-13.8,7.5-22.3l-103.6-486.3c1.4,1.7,2.9,3.3,4.8,4.5c5.2,3.6,11.8,4.8,18,3.5l269.7-57.5c8.5-1.8,14.9-8.1,17.3-15.9
			c3.2-2.8,5.6-6.5,6.8-10.6c6.1-5.4,9.3-13.8,7.5-22.3L3922.1,315c-18.1-90.6-52-153-100.7-185.1
			C3786.2,106.7,3744.3,100.1,3697,110.2L3697,110.2z M3769.5,132.8c33.7,8,60.4,29.2,81.2,59.5c0.7,1,1.4,2,2.1,3
			c21.7,33,36.9,76,46.6,124.5l38.9,182.5l-6,1.3l-2.7,0.6l-8.7,1.9l-252.3,53.8c0,0-35.8-214.7-72.6-208.5c-0.3,0-0.5,0.1-0.8,0.1
			c-7.5,1.6-12.4,7.1-15.5,15c-0.9,2.3-1.6,4.8-2.2,7.4c-1.5,6.6-2.1,14.2-2.1,22.4c0.1,37.9,13.5,85.9,13.5,85.9l128.8,604.6
			l-6,1.3l-2.7,0.6l-8.7,1.8l-252.4,53.8l-191.1-896.6l-1.9-8.7l-0.6-2.7l-1.3-6l266.9-56.9l1.3-0.3l1.6-0.3l0.3,1.6l0.3,1.3
			l23.3,109.5l5,23.3l1.8,8.6l2.4,11.2c6.4-37.4,18.7-75.7,37.4-108.6c1.4-2.4,2.8-4.6,4.2-6.9c14.5-23.6,32.7-44,54.8-58.7
			c14.7-9.8,31.1-17.2,49.4-21.1c20.7-4.4,39.4-5,56.6-2.5c0.2,0,0.5,0,0.7,0.1c2.6,0.4,5.1,1.1,7.6,1.6
			C3767.7,132.4,3768.6,132.5,3769.5,132.8z"/>
		<path class="st2" d="M4549.5,236.3l-250.7-83.8l-1.9,5.8l-0.9,2.6l-2.8,8.4l-104.6,313c-0.5-7.4-1.2-14.7-2-22
			c-0.7-6.7-1.6-13.4-2.6-19.9c-0.3-2-0.6-3.9-0.9-5.9c-1-5.8-2.2-11.6-3.5-17.3c-1.6-6.8-3.4-13.5-5.5-20.2
			c-9.9-32-25.6-60.8-50.5-82.9c-1.5-1.3-3.2-2.5-4.7-3.8c-14.3-11.6-31.3-21.3-51.8-28.2c-17.6-5.9-34.3-7.8-50.3-6.6
			c-18.3,1.4-35.4,7.2-51.5,16c-2.3,1.3-4.6,2.4-6.9,3.8C3846.2,364.7,3790,588.3,3790,588.3l-55.6,166.4
			c0,0-133.1,352.6,37.8,409.8c43.2,14.4,80.2,11.3,112.9-2.2c1.9-0.8,3.7-1.6,5.5-2.5c25.6-11.7,48.6-29.7,69.9-50.8
			c4.8-4.8,9.6-9.7,14.2-14.8c5-5.5,10-11,14.9-16.6l-48,143.5l236.7,79.1l8.4,2.8l2.6,0.9l5.8,1.9L4551.4,240l0.4-1.2l0.5-1.5
			l-1.5-0.5L4549.5,236.3L4549.5,236.3z M4140.7,625.8l-117.3,351.1c-11.6,26.2-27.6,58.1-47,62.5c-1.9,0.4-3.8,0.6-5.7,0.5
			c-1.8-0.1-3.6-0.4-5.4-1c-2.6-0.9-4.8-2-6.8-3.5c-1.4-1-2.6-2.2-3.8-3.5c-1.4-1.5-2.6-3.2-3.7-5c-2.9-5-4.8-10.9-5.8-17.4
			c-0.2-1.3-0.2-2.7-0.4-4.1c-2.6-29.5,9.8-66.8,9.8-66.8l47.5-142l27-80.9l48-143.5c0,0,7.1-21.3,19.2-41.2
			c5-8.3,10.9-16.3,17.4-22.5c1.8-1.7,3.7-3.3,5.7-4.8c8.1-5.8,17-8.5,26.5-5.3c24.4,8.2,16.8,51.4,8.6,86
			C4147.3,605.9,4140.7,625.8,4140.7,625.8L4140.7,625.8z"/>
		<path class="st1" d="M4559.6,215.3l-253.4-84.7c-8.2-2.7-16.8-0.5-22.8,4.9c-4.2,0.8-8,2.7-11.2,5.6c-7.9,1.5-14.9,7.1-17.6,15.3
			l-68.8,205.8c-18.9-41.8-52.1-82.1-111.3-101.9c-41.4-13.8-81.8-10.2-120.1,10.8c-0.4,0.2-0.8,0.5-1.1,0.7
			c-3.4,1.6-6.7,3.1-10,4.9c-0.4,0.2-0.8,0.5-1.1,0.7c-3.4,1.6-6.7,3.1-10,4.9c-121.9,66.7-181.8,292.3-186.6,310.8l-55.2,165.2
			c-5.5,14.7-88.6,241.3-29.4,366c17.3,36.4,44.8,61.1,81.7,73.4c58.1,19.4,106.1,11.1,146.9-10.9c3.8-1.7,7.5-3.6,11.2-5.6
			c4.7-2.2,9.3-4.6,13.8-7.1l-17,50.9c-4,12.1,2.5,25.2,14.6,29.2l253.4,84.7c8.2,2.7,16.8,0.5,22.8-4.9c4.2-0.8,8-2.7,11.2-5.6
			c7.9-1.5,14.9-7.1,17.6-15.3l357.2-1068.6C4578.2,232.5,4571.7,219.4,4559.6,215.3z M4174.2,397c2,6.6,3.9,13.3,5.5,20.2
			c1.3,5.7,2.5,11.5,3.5,17.3c0.3,2,0.6,3.9,0.9,5.9c1,6.6,1.9,13.3,2.6,19.9c0.8,7.3,1.5,14.6,2,22l104.6-313l2.8-8.4l0.9-2.6
			l1.9-5.8l250.7,83.8l1.2,0.4l1.5,0.5l-0.5,1.5l-0.4,1.2l-356.2,1065.8l-5.8-1.9l-2.6-0.9l-8.4-2.8l-236.7-79.1l48-143.5
			c-4.9,5.7-9.8,11.2-14.9,16.6c-4.7,5-9.4,10-14.2,14.8c-21.2,21-44.2,39.1-69.9,50.8c-1.8,0.8-3.7,1.7-5.5,2.5
			c-32.7,13.5-69.7,16.7-112.9,2.2c-171-57.2-37.8-409.8-37.8-409.8l55.6-166.4c0,0,56.2-223.6,168.5-292.9c2.3-1.4,4.6-2.6,6.9-3.8
			c16.1-8.8,33.2-14.6,51.5-16c15.9-1.2,32.7,0.7,50.3,6.6c20.5,6.9,37.4,16.5,51.8,28.2c1.6,1.3,3.2,2.5,4.7,3.8
			C4148.6,336.1,4164.3,365,4174.2,397L4174.2,397z"/>
		<path class="st1" d="M3945.2,1009.5c0.9,6.5,2.8,12.5,5.8,17.4c1.1,1.8,2.3,3.5,3.7,5c1.2,1.2,2.4,2.5,3.8,3.5
			c2,1.4,4.3,2.6,6.8,3.5c1.8,0.6,3.6,0.9,5.4,1c1.9,0.1,3.8-0.1,5.7-0.5c19.4-4.4,35.4-36.3,47-62.5l117.3-351.1
			c0,0,6.6-19.8,13.8-41.2c8.2-34.6,15.8-77.9-8.6-86c-9.5-3.2-18.4-0.5-26.5,5.3c-1.9,1.4-3.9,3-5.7,4.8
			c-6.5,6.2-12.4,14.2-17.4,22.5c-12,19.9-19.2,41.2-19.2,41.2l-48,143.5l-27,80.9l-47.5,142c0,0-12.4,37.3-9.8,66.8
			C3944.9,1006.8,3945,1008.2,3945.2,1009.5L3945.2,1009.5z"/>
		<path class="st2" d="M4901.5,1019.9c0,0,0-33.1-17.4-76.6c-1.3-3.3-2.8-6.8-4.4-10.2c-16.1-36-44.2-77.6-93.3-113.2
			c-34.7-25.3-91.6-67.6-138.6-102.6c-5.5-4.1-10.9-8.2-16.2-12.1c-4.6-3.5-9.1-6.8-13.4-10c-0.9-0.7-1.8-1.3-2.7-2
			c-0.9-0.6-1.7-1.3-2.6-1.9c0,0-0.1-0.1-0.1-0.1c-4.3-3.2-8.4-6.3-12.2-9.2c-4.5-3.4-8.6-6.5-12.4-9.3c-7.7-5.8-13.7-10.3-17-12.8
			c-3.3-2.4-5.9-5.5-7.9-9c-0.4-0.7-0.8-1.4-1.2-2.2c-7.9-15.7-5.9-37.2-5.9-37.2c0-6.3,0.4-11.9,1-16.9c1-7.7,2.7-13.8,4.9-18.8
			c1.1-2.5,2.3-4.7,3.6-6.6c7.7-11.5,17.8-12.9,22-12.9c1.2,0,1.9,0.1,1.9,0.1c43.3,0,40,76.7,40,76.7l1.7,41.7l251.8,1.5l9.1,0.1
			l2.8,0l6.3,0v-31.7c0-53.2-7.1-102-21.8-144.7c-1.7-5-3.5-9.8-5.4-14.6c-27.3-68.8-75.8-120.4-147.7-147.5
			c-4.5-1.7-9.2-3.3-13.9-4.8c-33.9-10.9-72.5-16.7-116.3-16.7c-60,0-108.6,8.4-148.2,22.1c-45,15.6-78.3,38.1-102.7,63.6
			c-2,2.1-4,4.2-5.9,6.3c-73.4,82.8-60,191.5-60,191.5s0,110,91.7,173.4c51.7,38.3,135,96.7,185.1,130
			c73.4,51.7,68.4,106.7,68.4,106.7c0,27.5-8.3,39.1-16.7,43.9c-2,1.2-4,1.9-5.9,2.4c-2.3,0.6-4.5,0.8-6.2,0.8
			c-2.8,0-4.6-0.5-4.6-0.5c-0.9,0-1.7-0.2-2.6-0.3c-5-0.4-9.5-1.5-13.3-3.6c-0.9-0.5-1.7-1.2-2.6-1.8c-5.1-3.5-9.2-8.4-12.2-14.2
			c-0.4-0.8-0.8-1.8-1.2-2.7c-11.6-25.2-8.1-62.5-8.1-62.5l-2.6-26.5l-0.5-4.9l-0.2-2h-1.6l-6.1-0.1l-260.8-1.6v31.7
			c0,180.1,78.4,328.4,305.1,328.4c117,0,191-31.5,237.8-73.3c2.1-1.9,4.2-3.8,6.2-5.8c29.1-28,46.9-59.9,57.6-89.8
			C4906.9,1070.2,4901.5,1019.9,4901.5,1019.9L4901.5,1019.9z"/>
		<path class="st1" d="M4925.5,1018.6c-0.3-14.6-6.7-132.5-124.9-218.1c-27.9-20.4-71.4-52.6-112.2-83l194.8,1.2h0.1
			c6.3,0,12.4-2.5,16.9-7c1.6-1.6,2.8-3.4,3.9-5.3c1.9-1,3.7-2.3,5.2-3.8c1.6-1.6,2.8-3.4,3.9-5.3c1.9-1,3.7-2.3,5.2-3.8
			c4.5-4.5,7.1-10.6,7.1-17v-31.7c0-223.9-119.9-352.4-329-352.4c-119.4,0-209.6,31.5-268.6,93.5c-3.1,3-6.2,6-9.1,9.1
			c-5.4,5.1-10.6,10.3-15.5,15.9c-75.6,85.5-67.2,194.2-65.7,208.6c0.3,14.8,6,125,101.7,191.4c37.9,28.1,96,69.3,145.1,103
			l-204.5-1.3h-0.1c-6.3,0-12.4,2.5-16.9,7c-1.6,1.6-2.8,3.4-3.9,5.3c-1.9,1-3.7,2.3-5.2,3.8c-1.6,1.6-2.8,3.4-3.9,5.3
			c-1.9,1.1-3.7,2.3-5.2,3.8c-4.5,4.5-7.1,10.6-7.1,17v31.7c0,227.2,116.9,352.4,329,352.4c119,0,209.1-31.5,268.2-93.3
			c3.1-3,6.2-6,9.1-9.1c5-4.7,9.9-9.6,14.5-14.8C4933.5,1137.9,4926.7,1031.9,4925.5,1018.6z M4874.4,485.5
			c1.9,4.8,3.7,9.6,5.4,14.6c14.7,42.8,21.8,91.5,21.8,144.7v31.7l-6.3,0l-2.8,0l-9.1-0.1l-251.8-1.6l-1.7-41.7
			c0,0,3.3-76.7-40-76.7c0,0-0.7-0.1-1.8-0.1c-4.1,0-14.3,1.4-22,12.9c-1.3,1.9-2.5,4.1-3.6,6.6c-2.1,4.9-3.9,11.1-4.9,18.8
			c-0.7,5-1,10.5-1,16.9c0,0-2,21.5,5.9,37.2c0.4,0.7,0.7,1.5,1.2,2.2c2,3.5,4.6,6.6,7.9,9c3.3,2.5,9.3,7.1,17,12.9
			c3.7,2.8,7.8,5.9,12.4,9.3c3.8,2.9,7.9,5.9,12.2,9.2c0,0,0.1,0.1,0.1,0.1c0.9,0.6,1.7,1.2,2.5,1.9c0.9,0.7,1.8,1.3,2.7,2
			c4.3,3.2,8.8,6.6,13.4,10c5.2,3.9,10.6,7.9,16.2,12.1c47,35.1,103.9,77.3,138.6,102.6c49.1,35.6,77.2,77.1,93.3,113.2
			c1.6,3.5,2.9,6.8,4.4,10.3c17.4,43.5,17.4,76.6,17.4,76.6s5.4,50.2-15.2,107.9c-10.7,30-28.4,61.9-57.6,89.8
			c-2,1.9-4.1,3.8-6.2,5.8c-46.8,41.7-120.8,73.3-237.8,73.3c-226.8,0-305.1-148.4-305.1-328.4v-31.7l260.8,1.6l6.1,0h1.6l0.2,2
			l0.5,4.9l2.6,26.5c0,0-3.6,37.3,8.1,62.5c0.4,0.9,0.8,1.8,1.2,2.7c3,5.8,7.1,10.6,12.2,14.2c0.9,0.6,1.6,1.3,2.6,1.8
			c3.8,2.1,8.3,3.2,13.3,3.6c0.9,0.1,1.7,0.3,2.6,0.3c0,0,1.8,0.5,4.6,0.5c1.8,0,3.9-0.2,6.2-0.8c1.9-0.5,3.9-1.3,5.9-2.4
			c8.3-4.8,16.7-16.4,16.7-43.9c0,0,5-55-68.4-106.7c-50-33.3-133.4-91.7-185.1-130c-91.7-63.4-91.7-173.4-91.7-173.4
			s-13.3-108.7,60-191.5c1.9-2.1,3.9-4.2,5.9-6.3c24.4-25.5,57.7-48,102.7-63.6c39.6-13.7,88.1-22.1,148.2-22.1
			c43.8,0,82.5,5.9,116.3,16.7c4.7,1.5,9.4,3.1,13.9,4.8C4798.6,365.1,4847.1,416.7,4874.4,485.5L4874.4,485.5z"/>
	</g>
</g>
<g>
	<text transform="matrix(1 0 0 1 4740.1587 285.9836)" class="st3 st4 st5">TM</text>
</g>
</svg>
